<svg height="31" viewBox="0 0 190 31" width="190" xmlns="http://www.w3.org/2000/svg"><path d="m138.687709 11.8179091h.089816c2.743091 0 4.137233 1.3991983 4.227239 4.2425707h4.856901c-.224825-5.461295-3.822403-8.62063988-9.039137-8.62063988h-.090006c-5.621382 0-9.309155 3.61081598-9.309155 10.29064468v2.888729c0 6.6798286 3.687773 10.2906446 9.309155 10.2906446h.090006c5.216734 0 8.814312-3.1593449 9.039137-8.6208304h-4.856901c-.134819 2.708255-1.528961 4.1977857-4.227239 4.1977857h-.089816c-3.058112 0-4.452255-1.7605277-4.452255-5.8675999v-2.888729c0-4.152429 1.394143-5.9125755 4.452255-5.9125755zm31.634797-3.92659807h-6.20604l-7.015524 8.12400257h-.494652v-16.0153136h-4.946907v30.4585777h4.946907v-7.7182693l2.473263-2.7078738 6.071221 10.4261431h5.576569l-8.544675-13.7661527zm-49.318679 9.83917357c0-.3367453-.011014-.6511933-.026964-.9549691l-8.299722 8.329823c.018039.022869.03323.0503117.051839.0724184.674664.857776 1.843792 1.3090566 3.462569 1.3090566h.270207c3.237934 0 4.542071-1.5798631 4.542071-5.8675999zm-9.328144 3.7998659 8.30333-8.3336345c-.729352-.9686905-1.873035-1.3788069-3.517257-1.3788069h-.270207c-3.237744 0-4.541691 1.5796724-4.541691 5.9125755v2.888729c0 .3186407.010064.6197484.025825.9111369zm14.139852-3.7998659v2.888729c0 6.6798286-3.597578 10.2906446-9.353779 10.2906446h-.270207c-5.756201 0-9.353779-3.610816-9.353779-10.2906446v-2.888729c0-6.6798287 3.597578-10.29064468 9.353779-10.29064468h.270207c5.756201 0 9.353779 3.61081598 9.353779 10.29064468zm-29.0464632-7.7180788h-.5398456v-2.12109477h-4.946717v22.56726667h4.946717v-16.2034107c0-1.5796724.4046468-1.9857868 1.9788008-1.9857868h6.161227v-4.37806917h-3.417946c-1.9337975 0-3.3279396.72208698-4.1822362 2.12109477zm-9.4994209-2.12109477h-6.2060401l-7.0155237 8.12400257h-.4946527v-16.0153136h-4.946717v30.4585777h4.946717v-7.7182693l2.4734534-2.7078738 6.0710314 10.4261431h5.5767583l-8.5448645-13.7661527zm-31.6347974 3.92659807h.089816c2.7432813 0 4.1374234 1.3991983 4.2274293 4.2425707h4.856901c-.2248249-5.461295-3.8225926-8.62063988-9.0391375-8.62063988h-.0900059c-5.6215714 0-9.3091552 3.61081598-9.3091552 10.29064468v2.888729c0 6.6798286 3.6875838 10.2906446 9.3091552 10.2906446h.0900059c5.2165449 0 8.8143126-3.1593449 9.0391375-8.6208304h-4.856901c-.134819 2.708255-1.5289611 4.1977857-4.2274293 4.1977857h-.089816c-3.0581121 0-4.4522542-1.7605277-4.4522542-5.8675999v-2.888729c0-4.152429 1.3941421-5.9125755 4.4522542-5.9125755zm-19.6378077 9.0269448-5.2165449.6317546c-2.6084623.3159726-3.9125985 1.2187243-3.9125985 2.708255v.1804741c0 1.5346968 1.0343084 2.3017594 3.1029251 2.3017594h.179822c3.9125985 0 5.8463963-1.8954545 5.8463963-5.7319108zm4.767085 5.190679h3.3279399v4.4230448h-7.6901882l-.4048367-2.9790614h-.4946527c-1.0343084 2.30195-3.1031151 3.4303419-6.1160343 3.4303419h-.1800118c-4.1822365 0-7.0605266-2.5725658-7.0605266-6.3640465v-.2254497c0-3.6561728 2.6084623-5.7774581 7.8700101-6.3642372l5.9812153-.7218964v-.5869696c0-3.2045111-1.2593232-4.8293497-3.8225926-4.8293497h-.179822c-2.5634593 0-3.9125985 1.308866-4.0474175 3.9719548h-4.99172c.4944629-5.5966029 4.0024146-8.35002398 9.2189595-8.35002398h.1800118c5.3963668 0 8.4096658 3.06901258 8.4096658 9.16225268zm147.4370802-6.2740954c-1.21432-.9927028-3.148118-1.8504788-5.75639-2.617732-3.77759-1.0832257-5.216735-1.6698142-5.216735-3.1595355 0-1.5794819 1.124314-2.3919012 3.372943-2.3919012h.179822c2.473643 0 3.732776 1.1735581 3.777589 3.5204837h4.856901c0-5.19048847-3.32794-7.76324492-8.679493-7.76324492h-.134819c-5.036723 0-8.095025 2.3469256-8.095025 6.54471122 0 3.5654593 2.563649 5.5966029 7.42055 6.9958012 3.957412 1.0832258 5.396557 1.6700048 5.396557 3.430342 0 1.624648-1.304326 2.4372579-3.912599 2.4372579h-.134819c-3.013299 0-4.407441-1.0832257-4.407441-3.7463145h-4.811708c0 5.3709626 3.642581 7.9886946 9.219149 7.9886946h.134819c5.261548 0 8.589488-2.4824241 8.589488-6.679638 0-2.0313342-.584659-3.5208649-1.798789-4.5589245zm-169.8531082-3.7009577v14.3980979h-4.99172v-14.0367686c0-2.9338952-1.1691273-4.3780692-3.50776182-4.3780692h-.17982193c-3.05811207 0-4.72189214 2.030953-4.72189214 5.4611044v12.9537334h-4.94690691v-30.4585777h4.94690691v11.1407977h.49446283c1.12450417-2.4824241 3.05830196-3.70095778 5.80139336-3.70095778h.1798219c4.2722424 0 6.9255178 3.15934488 6.9255178 8.62063988z" fill="#1320d9" fill-rule="evenodd"/></svg>